<mxfile host="app.diagrams.net" modified="2022-02-11T18:56:28.292Z" agent="5.0 (X11)" etag="yhSn5SMtvXv3oYQ1L5hr" version="16.5.6" type="github">
  <diagram id="Imr8A0wt5mFWpmqlRXxD" name="Page-1">
    <mxGraphModel dx="1420" dy="740" grid="1" gridSize="10" guides="1" tooltips="1" connect="1" arrows="1" fold="1" page="1" pageScale="1" pageWidth="850" pageHeight="1100" math="0" shadow="0">
      <root>
        <mxCell id="0" />
        <mxCell id="1" parent="0" />
        <mxCell id="-aI8QIXByfEXTaHfV82z-1" value="" style="whiteSpace=wrap;html=1;aspect=fixed;" parent="1" vertex="1">
          <mxGeometry x="70" y="310" width="50" height="50" as="geometry" />
        </mxCell>
        <mxCell id="-aI8QIXByfEXTaHfV82z-2" value="" style="whiteSpace=wrap;html=1;aspect=fixed;" parent="1" vertex="1">
          <mxGeometry x="20" y="360" width="50" height="50" as="geometry" />
        </mxCell>
        <mxCell id="-aI8QIXByfEXTaHfV82z-3" value="" style="whiteSpace=wrap;html=1;aspect=fixed;" parent="1" vertex="1">
          <mxGeometry x="20" y="310" width="50" height="50" as="geometry" />
        </mxCell>
        <mxCell id="-aI8QIXByfEXTaHfV82z-4" value="" style="whiteSpace=wrap;html=1;aspect=fixed;" parent="1" vertex="1">
          <mxGeometry x="70" y="360" width="50" height="50" as="geometry" />
        </mxCell>
        <mxCell id="-aI8QIXByfEXTaHfV82z-7" value="" style="whiteSpace=wrap;html=1;aspect=fixed;" parent="1" vertex="1">
          <mxGeometry x="120" y="310" width="50" height="50" as="geometry" />
        </mxCell>
        <mxCell id="-aI8QIXByfEXTaHfV82z-8" value="" style="whiteSpace=wrap;html=1;aspect=fixed;" parent="1" vertex="1">
          <mxGeometry x="70" y="410" width="50" height="50" as="geometry" />
        </mxCell>
        <mxCell id="-aI8QIXByfEXTaHfV82z-9" value="" style="whiteSpace=wrap;html=1;aspect=fixed;" parent="1" vertex="1">
          <mxGeometry x="20" y="410" width="50" height="50" as="geometry" />
        </mxCell>
        <mxCell id="-aI8QIXByfEXTaHfV82z-10" value="" style="whiteSpace=wrap;html=1;aspect=fixed;" parent="1" vertex="1">
          <mxGeometry x="120" y="360" width="50" height="50" as="geometry" />
        </mxCell>
        <mxCell id="-aI8QIXByfEXTaHfV82z-11" value="" style="whiteSpace=wrap;html=1;aspect=fixed;" parent="1" vertex="1">
          <mxGeometry x="120" y="410" width="50" height="50" as="geometry" />
        </mxCell>
        <mxCell id="-aI8QIXByfEXTaHfV82z-12" value="" style="rounded=0;whiteSpace=wrap;html=1;" parent="1" vertex="1">
          <mxGeometry x="210" y="260" width="120" height="20" as="geometry" />
        </mxCell>
        <mxCell id="-aI8QIXByfEXTaHfV82z-13" value="" style="rounded=0;whiteSpace=wrap;html=1;" parent="1" vertex="1">
          <mxGeometry x="490" y="230" width="40" height="20" as="geometry" />
        </mxCell>
        <mxCell id="-aI8QIXByfEXTaHfV82z-14" value="" style="rounded=0;whiteSpace=wrap;html=1;" parent="1" vertex="1">
          <mxGeometry x="210" y="300" width="120" height="20" as="geometry" />
        </mxCell>
        <mxCell id="-aI8QIXByfEXTaHfV82z-15" value="" style="rounded=0;whiteSpace=wrap;html=1;" parent="1" vertex="1">
          <mxGeometry x="210" y="320" width="120" height="20" as="geometry" />
        </mxCell>
        <mxCell id="-aI8QIXByfEXTaHfV82z-16" value="" style="rounded=0;whiteSpace=wrap;html=1;" parent="1" vertex="1">
          <mxGeometry x="210" y="420" width="120" height="20" as="geometry" />
        </mxCell>
        <mxCell id="-aI8QIXByfEXTaHfV82z-17" value="" style="rounded=0;whiteSpace=wrap;html=1;" parent="1" vertex="1">
          <mxGeometry x="210" y="440" width="120" height="20" as="geometry" />
        </mxCell>
        <mxCell id="-aI8QIXByfEXTaHfV82z-18" value="" style="rounded=0;whiteSpace=wrap;html=1;" parent="1" vertex="1">
          <mxGeometry x="210" y="460" width="120" height="20" as="geometry" />
        </mxCell>
        <mxCell id="-aI8QIXByfEXTaHfV82z-19" value="" style="rounded=0;whiteSpace=wrap;html=1;" parent="1" vertex="1">
          <mxGeometry x="210" y="480" width="120" height="20" as="geometry" />
        </mxCell>
        <mxCell id="-aI8QIXByfEXTaHfV82z-20" value="" style="ellipse;whiteSpace=wrap;html=1;aspect=fixed;" parent="1" vertex="1">
          <mxGeometry x="380" y="220" width="30" height="30" as="geometry" />
        </mxCell>
        <mxCell id="-aI8QIXByfEXTaHfV82z-21" value="" style="ellipse;whiteSpace=wrap;html=1;aspect=fixed;" parent="1" vertex="1">
          <mxGeometry x="380" y="260" width="30" height="30" as="geometry" />
        </mxCell>
        <mxCell id="-aI8QIXByfEXTaHfV82z-22" value="" style="ellipse;whiteSpace=wrap;html=1;aspect=fixed;" parent="1" vertex="1">
          <mxGeometry x="380" y="300" width="30" height="30" as="geometry" />
        </mxCell>
        <mxCell id="-aI8QIXByfEXTaHfV82z-24" value="" style="ellipse;whiteSpace=wrap;html=1;aspect=fixed;" parent="1" vertex="1">
          <mxGeometry x="420" y="210" width="30" height="30" as="geometry" />
        </mxCell>
        <mxCell id="-aI8QIXByfEXTaHfV82z-25" value="" style="ellipse;whiteSpace=wrap;html=1;aspect=fixed;" parent="1" vertex="1">
          <mxGeometry x="420" y="250" width="30" height="30" as="geometry" />
        </mxCell>
        <mxCell id="-aI8QIXByfEXTaHfV82z-26" value="" style="ellipse;whiteSpace=wrap;html=1;aspect=fixed;" parent="1" vertex="1">
          <mxGeometry x="420" y="320" width="30" height="30" as="geometry" />
        </mxCell>
        <mxCell id="-aI8QIXByfEXTaHfV82z-28" value="" style="rounded=0;whiteSpace=wrap;html=1;" parent="1" vertex="1">
          <mxGeometry x="490" y="210" width="40" height="20" as="geometry" />
        </mxCell>
        <mxCell id="-aI8QIXByfEXTaHfV82z-29" value="" style="rounded=0;whiteSpace=wrap;html=1;" parent="1" vertex="1">
          <mxGeometry x="490" y="250" width="40" height="20" as="geometry" />
        </mxCell>
        <mxCell id="-aI8QIXByfEXTaHfV82z-30" value="" style="rounded=0;whiteSpace=wrap;html=1;" parent="1" vertex="1">
          <mxGeometry x="490" y="270" width="40" height="20" as="geometry" />
        </mxCell>
        <mxCell id="-aI8QIXByfEXTaHfV82z-31" value="" style="rounded=0;whiteSpace=wrap;html=1;" parent="1" vertex="1">
          <mxGeometry x="210" y="280" width="120" height="20" as="geometry" />
        </mxCell>
        <mxCell id="-aI8QIXByfEXTaHfV82z-36" value="" style="shape=internalStorage;whiteSpace=wrap;html=1;backgroundOutline=1;" parent="1" vertex="1">
          <mxGeometry x="560" y="300" width="110" height="110" as="geometry" />
        </mxCell>
        <mxCell id="-aI8QIXByfEXTaHfV82z-37" value="" style="rounded=0;whiteSpace=wrap;html=1;" parent="1" vertex="1">
          <mxGeometry x="490" y="420" width="40" height="20" as="geometry" />
        </mxCell>
        <mxCell id="-aI8QIXByfEXTaHfV82z-38" value="" style="ellipse;whiteSpace=wrap;html=1;aspect=fixed;" parent="1" vertex="1">
          <mxGeometry x="380" y="410" width="30" height="30" as="geometry" />
        </mxCell>
        <mxCell id="-aI8QIXByfEXTaHfV82z-39" value="" style="ellipse;whiteSpace=wrap;html=1;aspect=fixed;" parent="1" vertex="1">
          <mxGeometry x="380" y="450" width="30" height="30" as="geometry" />
        </mxCell>
        <mxCell id="-aI8QIXByfEXTaHfV82z-40" value="" style="ellipse;whiteSpace=wrap;html=1;aspect=fixed;" parent="1" vertex="1">
          <mxGeometry x="380" y="490" width="30" height="30" as="geometry" />
        </mxCell>
        <mxCell id="-aI8QIXByfEXTaHfV82z-41" value="" style="ellipse;whiteSpace=wrap;html=1;aspect=fixed;" parent="1" vertex="1">
          <mxGeometry x="420" y="400" width="30" height="30" as="geometry" />
        </mxCell>
        <mxCell id="-aI8QIXByfEXTaHfV82z-42" value="" style="ellipse;whiteSpace=wrap;html=1;aspect=fixed;" parent="1" vertex="1">
          <mxGeometry x="420" y="440" width="30" height="30" as="geometry" />
        </mxCell>
        <mxCell id="-aI8QIXByfEXTaHfV82z-43" value="" style="ellipse;whiteSpace=wrap;html=1;aspect=fixed;" parent="1" vertex="1">
          <mxGeometry x="420" y="510" width="30" height="30" as="geometry" />
        </mxCell>
        <mxCell id="-aI8QIXByfEXTaHfV82z-44" value="" style="rounded=0;whiteSpace=wrap;html=1;" parent="1" vertex="1">
          <mxGeometry x="490" y="400" width="40" height="20" as="geometry" />
        </mxCell>
        <mxCell id="-aI8QIXByfEXTaHfV82z-45" value="" style="rounded=0;whiteSpace=wrap;html=1;" parent="1" vertex="1">
          <mxGeometry x="490" y="440" width="40" height="20" as="geometry" />
        </mxCell>
        <mxCell id="-aI8QIXByfEXTaHfV82z-46" value="" style="rounded=0;whiteSpace=wrap;html=1;" parent="1" vertex="1">
          <mxGeometry x="490" y="460" width="40" height="20" as="geometry" />
        </mxCell>
      </root>
    </mxGraphModel>
  </diagram>
</mxfile>
